<svg width="1920" height="1368" viewBox="0 0 1920 1368" fill="none" xmlns="http://www.w3.org/2000/svg">
<g opacity="0.1">
<path d="M2015.7 532.662C2015.7 532.662 1759.77 -88.8183 1519.64 12.0789C1279.52 112.976 1274.77 465.59 1054.48 558.16C834.183 650.729 859.402 322.132 725.023 378.601C590.643 435.07 850.237 1034.42 646.103 1120.19C441.97 1205.95 187.548 641.565 -231 817.432" stroke="url(#paint0_linear_670_5186)" stroke-miterlimit="10"/>
<path d="M2018.38 539.059C2018.38 539.059 1764.88 -65.316 1526.3 31.2671C1289.73 127.035 1281.21 468.081 1064.37 557.28C848.392 646.588 870.37 328.7 738.652 384.032C666.429 414.38 710.278 578.529 729.122 741.475C748.074 905.452 755.822 1070.35 649.259 1110.08C548.404 1147.85 437.162 1041.89 305.551 943.269C159.947 834.173 1.85138 740.423 -223.574 835.139" stroke="url(#paint1_linear_670_5186)" stroke-miterlimit="10"/>
<path d="M2021.06 545.455C2021.06 545.455 1770.01 -41.8137 1532.95 50.4339C1299.97 141.093 1287.67 470.528 1074.29 556.401C862.622 642.445 881.359 335.268 752.302 389.484C674.714 422.086 731.784 587.887 746.872 747.056C762.003 906.568 762.991 1063.59 652.435 1099.97C548.061 1134.63 434.286 1029.59 303.641 936.38C157.801 832.306 15.7378 755.448 -216.126 852.868" stroke="url(#paint2_linear_670_5186)" stroke-miterlimit="10"/>
<path d="M2023.74 551.85C2023.74 551.85 1775.18 -18.2907 1539.6 69.6214C1310.23 155.194 1293.9 472.437 1084.2 555.542C876.658 637.788 892.326 341.835 765.952 394.935C682.998 429.79 753.268 597.201 764.622 752.657C775.954 907.662 770.138 1056.85 655.612 1089.88C547.696 1121.41 431.346 1017.36 301.731 929.49C155.569 830.396 29.624 770.471 -208.679 870.596" stroke="url(#paint3_linear_670_5186)" stroke-miterlimit="10"/>
<path d="M2026.45 558.246C2026.45 558.246 1780.42 5.25365 1546.28 88.7873C1320.58 169.316 1300.29 474.712 1094.14 554.64C890.845 633.452 903.337 348.381 779.624 400.365C691.305 437.474 774.795 606.43 782.393 758.237C789.927 908.692 777.242 1049.83 658.788 1079.75C547.288 1107.91 428.341 1005.08 299.821 922.557C153.272 828.464 43.5322 785.452 -201.231 888.281" stroke="url(#paint4_linear_670_5186)" stroke-miterlimit="10"/>
<path d="M2029.13 564.642C2029.13 564.642 1785.66 28.7991 1552.93 107.976C1330.9 183.504 1306.69 477.031 1104.04 553.782C905.011 629.181 914.304 354.971 793.253 405.816C699.568 445.179 796.28 615.617 800.121 763.84C803.899 909.702 784.389 1043.05 661.943 1069.66C546.923 1094.67 425.229 992.87 297.911 915.69C150.89 826.576 57.4184 800.498 -193.762 906.053" stroke="url(#paint5_linear_670_5186)" stroke-miterlimit="10"/>
<path d="M2031.81 571.038C2031.81 571.038 1790.94 52.3862 1559.57 127.163C1341.24 197.712 1313.04 479.327 1113.93 552.901C919.155 624.867 925.272 361.517 806.882 411.268C707.831 452.884 817.786 624.759 817.85 769.419C817.914 910.624 791.515 1036.27 665.098 1059.55C546.559 1081.4 422.052 980.679 295.979 908.778C148.4 824.643 71.2838 815.5 -186.336 923.759" stroke="url(#paint6_linear_670_5186)" stroke-miterlimit="10"/>
<path d="M2034.5 577.434C2034.5 577.434 1796.24 75.9745 1566.22 146.33C1351.65 211.964 1319.44 481.623 1123.85 552.022C933.363 620.574 936.239 368.085 820.511 416.698C716.094 460.568 839.334 633.796 835.6 775C831.994 911.526 798.683 1029.46 668.253 1049.45C546.193 1068.14 418.811 968.51 294.047 901.867C145.846 822.712 85.1486 830.525 -178.91 941.467" stroke="url(#paint7_linear_670_5186)" stroke-miterlimit="10"/>
<path d="M2037.18 583.83C2037.18 583.83 1801.6 99.605 1572.87 165.518C1362.11 226.258 1325.86 483.942 1133.76 551.142C947.55 616.303 947.228 374.652 834.162 422.15C724.379 468.274 860.905 642.788 853.35 780.602C846.117 912.384 805.852 1022.7 671.43 1039.34C545.85 1054.88 415.506 956.383 292.137 894.978C143.206 820.823 99.035 845.549 -171.462 959.195" stroke="url(#paint8_linear_670_5186)" stroke-miterlimit="10"/>
<path d="M2039.88 590.226C2039.88 590.226 1806.99 123.279 1579.55 184.684C1372.6 240.574 1332.27 486.238 1143.68 550.262C961.759 612.032 958.217 381.199 847.812 427.58C732.663 475.957 882.539 651.696 871.099 786.183C860.303 913.179 812.999 1015.94 674.606 1029.23C545.507 1041.63 412.115 944.321 290.227 888.067C140.458 818.935 112.922 860.551 -164.014 976.902" stroke="url(#paint9_linear_670_5186)" stroke-miterlimit="10"/>
<path d="M2042.57 596.622C2042.57 596.622 1812.42 146.974 1586.2 203.872C1383.1 254.975 1338.69 488.556 1153.59 549.403C975.967 607.783 969.185 387.788 861.463 433.053C740.948 483.684 904.217 660.581 888.849 791.784C874.555 913.951 820.168 1009.18 677.761 1019.14C545.142 1028.41 408.617 932.345 288.295 881.177C137.626 817.11 126.787 875.575 -156.588 994.63" stroke="url(#paint10_linear_670_5186)" stroke-miterlimit="10"/>
<path d="M2045.25 603.018C2045.25 603.018 1817.85 170.712 1592.85 223.06C1393.64 269.398 1345.13 490.895 1163.51 548.523C990.175 603.533 980.174 394.355 875.113 438.483C749.233 491.367 925.937 669.338 906.599 797.364C888.892 914.659 827.336 1002.42 680.938 1009.01C544.798 1015.15 405.075 920.39 286.385 874.266C134.707 815.307 140.673 890.578 -149.141 1012.34" stroke="url(#paint11_linear_670_5186)" stroke-miterlimit="10"/>
<path d="M2047.93 609.414C2047.93 609.414 1823.34 194.492 1599.51 242.226C1404.2 283.885 1351.55 493.213 1173.43 547.643C1004.41 599.283 991.163 400.901 888.763 443.934C757.518 499.073 947.743 678.073 924.349 802.966C903.315 915.325 834.505 995.682 684.114 998.923C544.455 1001.93 401.469 908.564 284.475 867.376C131.723 813.59 154.56 905.602 -141.672 1030.07" stroke="url(#paint12_linear_670_5186)" stroke-miterlimit="10"/>
<path d="M2050.62 615.809C2050.62 615.809 1828.86 218.316 1606.16 261.414C1414.8 298.437 1357.99 495.574 1183.32 546.763C1018.61 595.033 1002.11 407.469 902.392 449.364C765.781 506.756 969.614 686.701 942.099 808.546C917.846 915.947 841.673 988.921 687.291 988.813C544.133 988.706 397.777 896.802 282.586 860.465C128.654 811.937 168.468 920.604 -134.203 1047.77" stroke="url(#paint13_linear_670_5186)" stroke-miterlimit="10"/>
<path d="M2053.32 622.206C2053.32 622.206 1834.42 242.205 1612.84 280.581C1425.44 313.032 1364.45 497.914 1193.26 545.884C1032.87 590.805 1013.12 414.016 916.065 454.817C774.087 514.462 991.614 695.308 959.87 814.127C932.505 916.548 848.864 982.182 690.468 978.705C543.79 975.485 394.043 885.126 280.676 853.576C125.478 810.392 182.376 935.629 -126.754 1065.5" stroke="url(#paint14_linear_670_5186)" stroke-miterlimit="10"/>
<path d="M2056 628.601C2056 628.601 1840 266.157 1619.47 299.768C1436.07 327.713 1370.89 500.296 1203.15 545.003C1047.07 586.599 1024.09 420.583 929.672 460.246C782.329 522.145 1013.66 703.829 977.577 819.707C947.25 917.106 855.99 975.442 693.601 968.574C543.404 962.242 390.201 873.515 278.723 846.643C122.215 808.911 196.219 950.609 -119.35 1083.19" stroke="url(#paint15_linear_670_5186)" stroke-miterlimit="10"/>
<path d="M2058.69 634.997C2058.69 634.997 1845.6 290.174 1626.12 318.956C1446.73 342.479 1377.35 502.7 1213.07 544.145C1061.33 582.435 1035.05 427.172 943.322 465.719C790.613 529.872 1035.89 712.393 995.327 825.331C962.166 917.707 863.136 968.724 696.777 958.508C543.06 949.064 386.338 862.097 276.812 839.775C118.91 807.602 210.106 965.655 -111.903 1100.94" stroke="url(#paint16_linear_670_5186)" stroke-miterlimit="10"/>
<path d="M2061.37 641.393C2061.37 641.393 1851.23 314.277 1632.78 338.123C1457.42 357.267 1383.81 505.082 1222.96 543.244C1075.58 578.228 1046.02 433.697 956.951 471.128C798.877 537.534 1058.21 720.871 1013.06 830.89C977.191 918.265 870.284 961.964 699.911 948.378C542.674 935.822 382.41 850.7 274.86 832.864C115.519 806.422 223.95 980.658 -104.497 1118.66" stroke="url(#paint17_linear_670_5186)" stroke-miterlimit="10"/>
<path d="M2064.05 647.789C2064.05 647.789 1856.87 338.444 1639.43 357.31C1468.11 372.162 1390.27 507.507 1232.88 542.385C1089.83 574.085 1057.01 440.286 970.602 476.601C807.161 545.261 1080.75 729.434 1030.81 836.491C992.387 918.866 877.453 955.267 703.088 938.29C542.331 922.643 378.504 839.474 272.95 825.974C112.128 805.391 237.836 995.682 -97.0282 1136.39" stroke="url(#paint18_linear_670_5186)" stroke-miterlimit="10"/>
<path d="M2066.76 654.185C2066.76 654.185 1862.54 362.719 1646.1 376.477C1478.86 387.101 1396.77 509.933 1242.82 541.505C1104.12 569.943 1068.02 446.853 984.274 482.031C815.468 552.944 1103.46 737.976 1048.6 842.071C1007.78 919.51 884.643 948.528 706.307 928.159C542.03 909.401 374.641 828.314 271.082 819.042C108.758 804.511 251.765 1010.66 -89.538 1154.08" stroke="url(#paint19_linear_670_5186)" stroke-miterlimit="10"/>
<path d="M2069.44 660.581C2069.44 660.581 1868.2 387.101 1652.76 395.665C1489.57 402.146 1403.27 512.401 1252.71 540.625C1118.37 565.823 1078.97 453.4 997.902 487.483C823.731 560.65 1126.32 746.648 1066.33 847.673C1023.25 920.218 891.79 941.81 709.441 918.072C541.644 896.223 370.67 817.304 269.129 812.174C105.324 803.889 265.609 1025.71 -82.1334 1171.83" stroke="url(#paint20_linear_670_5186)" stroke-miterlimit="10"/>
<path d="M2072.12 666.978C2072.12 666.978 1873.85 411.569 1659.41 414.831C1500.28 417.256 1409.75 514.87 1262.63 539.745C1132.67 561.723 1089.96 459.968 1011.55 492.913C832.015 568.334 1149.37 755.405 1084.08 853.254C1038.85 921.013 898.894 935.436 712.617 907.963C541.236 883.345 366.764 806.379 267.24 805.263C101.954 803.396 279.517 1040.71 -74.6641 1189.53" stroke="url(#paint21_linear_670_5186)" stroke-miterlimit="10"/>
<path d="M2074.8 673.373C2074.8 673.373 1879.51 436.165 1666.06 434.018C1510.99 432.452 1416.26 517.38 1272.54 538.865C1146.96 557.645 1100.95 466.535 1025.18 498.343C840.279 576.017 1172.59 764.333 1101.8 858.834C1054.56 921.892 906.02 928.696 715.772 897.832C540.871 870.08 362.858 795.54 265.309 798.33C98.5846 803.095 293.382 1055.69 -67.2378 1207.22" stroke="url(#paint22_linear_670_5186)" stroke-miterlimit="10"/>
<path d="M2077.49 679.769C2077.49 679.769 1885.14 460.89 1672.72 453.207C1521.7 447.734 1422.76 519.935 1282.46 538.007C1161.26 553.61 1111.91 473.103 1038.83 503.816C848.585 583.744 1196.01 773.498 1119.55 864.436C1070.38 922.923 913.188 921.957 718.928 887.745C540.506 856.881 358.994 784.852 263.377 791.462C95.2795 803.074 307.247 1070.74 -59.8117 1224.97" stroke="url(#paint23_linear_670_5186)" stroke-miterlimit="10"/>
<path d="M2080.19 686.165C2080.19 686.165 1890.76 485.744 1679.39 472.373C1532.39 463.08 1429.29 522.489 1292.37 537.105C1175.55 549.575 1122.9 479.649 1052.48 509.225C856.869 591.406 1219.59 782.834 1137.3 869.995C1086.29 924.06 920.335 915.175 722.104 877.614C540.163 843.617 355.217 774.206 261.467 784.53C92.1028 803.202 321.133 1085.74 -52.3644 1242.66" stroke="url(#paint24_linear_670_5186)" stroke-miterlimit="10"/>
<path d="M2082.87 692.561C2082.87 692.561 1896.32 510.727 1686.03 491.561C1543.02 478.533 1435.77 525.129 1302.27 536.247C1189.82 545.626 1133.87 486.238 1066.11 514.698C865.133 599.133 1243.27 792.536 1155.05 875.619C1102.19 925.391 927.504 908.478 725.28 867.548C539.798 830.439 351.504 763.689 259.557 777.662C89.0338 803.589 335.042 1100.79 -44.8948 1260.41" stroke="url(#paint25_linear_670_5186)" stroke-miterlimit="10"/>
<path d="M2085.56 698.957C2085.56 698.957 1901.83 535.86 1692.68 510.727C1553.64 494.029 1442.27 527.769 1312.18 535.367C1204.12 541.677 1144.84 492.784 1079.76 520.128C873.417 606.838 1267.05 802.494 1172.8 881.199C1118.14 926.85 934.651 901.717 728.457 857.418C539.454 817.196 347.876 753.172 257.646 770.75C86.0931 804.146 348.928 1115.79 -37.4475 1278.11" stroke="url(#paint26_linear_670_5186)" stroke-miterlimit="10"/>
<path d="M2088.24 705.353C2088.24 705.353 1907.29 561.165 1699.33 529.915C1564.2 509.611 1448.77 530.495 1322.1 534.487C1218.39 537.749 1155.83 499.352 1093.41 525.579C881.702 614.543 1290.89 812.796 1190.55 886.779C1134.02 928.46 941.798 894.956 731.612 847.309C539.09 803.954 344.314 742.741 255.715 763.839C83.3031 804.898 362.793 1130.79 -30.0212 1295.82" stroke="url(#paint27_linear_670_5186)" stroke-miterlimit="10"/>
<path d="M2090.92 711.749C2090.92 711.749 1912.65 586.599 1705.99 549.103C1574.7 525.279 1455.28 533.285 1331.99 533.628C1232.66 533.907 1166.79 505.941 1107.04 531.031C889.965 622.249 1314.7 823.442 1208.28 892.381C1149.84 930.263 948.945 888.238 734.767 837.221C538.725 790.754 340.858 732.375 253.783 756.95C80.6629 805.821 376.658 1145.81 -22.5953 1313.55" stroke="url(#paint28_linear_670_5186)" stroke-miterlimit="10"/>
<path d="M2093.63 718.145C2093.63 718.145 1917.93 612.204 1712.66 568.269C1585.17 540.968 1461.76 536.096 1341.93 532.726C1246.94 530.065 1177.78 512.465 1120.71 536.461C898.271 629.932 1338.5 834.345 1226.05 897.961C1165.59 932.173 956.114 881.477 737.965 827.09C538.381 777.511 337.531 722.008 251.916 750.038C78.302 806.894 390.588 1160.82 -15.1045 1331.25" stroke="url(#paint29_linear_670_5186)" stroke-miterlimit="10"/>
<path d="M2096.31 724.541C2096.31 724.541 1923.08 637.981 1719.31 587.457C1595.54 556.765 1468.22 539.016 1351.85 531.869C1261.19 526.31 1188.77 519.055 1134.34 541.913C906.535 637.638 1362.13 845.571 1243.78 903.563C1181.2 934.234 963.24 874.739 741.098 817.003C537.995 764.291 334.269 711.685 249.963 743.149C76.0271 808.075 404.431 1175.84 -7.69993 1349" stroke="url(#paint30_linear_670_5186)" stroke-miterlimit="10"/>
<path d="M2098.99 730.937C2098.99 730.937 1381.17 449.386 1147.99 547.364C914.819 645.343 1385.65 857.01 1261.55 909.143C1137.45 961.277 422.095 663.114 248.074 736.238C74.031 809.362 418.339 1190.84 -0.2094 1366.71" stroke="url(#paint31_linear_670_5186)" stroke-miterlimit="10"/>
</g>
<defs>
<linearGradient id="paint0_linear_670_5186" x1="2016.68" y1="565.074" x2="-231.429" y2="565.074" gradientUnits="userSpaceOnUse">
<stop offset="0.00064132" stop-color="#2F046B"/>
<stop offset="0.9969" stop-color="#11DCCA"/>
</linearGradient>
<linearGradient id="paint1_linear_670_5186" x1="2019.37" y1="569.37" x2="-223.984" y2="569.37" gradientUnits="userSpaceOnUse">
<stop offset="0.00064132" stop-color="#2F046B"/>
<stop offset="0.9969" stop-color="#11DCCA"/>
</linearGradient>
<linearGradient id="paint2_linear_670_5186" x1="2022.05" y1="573.688" x2="-216.54" y2="573.688" gradientUnits="userSpaceOnUse">
<stop offset="0.00064132" stop-color="#2F046B"/>
<stop offset="0.9969" stop-color="#11DCCA"/>
</linearGradient>
<linearGradient id="paint3_linear_670_5186" x1="2024.73" y1="578.03" x2="-209.096" y2="578.03" gradientUnits="userSpaceOnUse">
<stop offset="0.00064132" stop-color="#2F046B"/>
<stop offset="0.9969" stop-color="#11DCCA"/>
</linearGradient>
<linearGradient id="paint4_linear_670_5186" x1="2027.42" y1="582.366" x2="-201.651" y2="582.365" gradientUnits="userSpaceOnUse">
<stop offset="0.00064132" stop-color="#2F046B"/>
<stop offset="0.9969" stop-color="#11DCCA"/>
</linearGradient>
<linearGradient id="paint5_linear_670_5186" x1="2030.1" y1="586.762" x2="-194.207" y2="586.762" gradientUnits="userSpaceOnUse">
<stop offset="0.00064132" stop-color="#2F046B"/>
<stop offset="0.9969" stop-color="#11DCCA"/>
</linearGradient>
<linearGradient id="paint6_linear_670_5186" x1="2032.79" y1="591.192" x2="-186.763" y2="591.192" gradientUnits="userSpaceOnUse">
<stop offset="0.00064132" stop-color="#2F046B"/>
<stop offset="0.9969" stop-color="#11DCCA"/>
</linearGradient>
<linearGradient id="paint7_linear_670_5186" x1="2035.47" y1="595.661" x2="-179.319" y2="595.661" gradientUnits="userSpaceOnUse">
<stop offset="0.00064132" stop-color="#2F046B"/>
<stop offset="0.9969" stop-color="#11DCCA"/>
</linearGradient>
<linearGradient id="paint8_linear_670_5186" x1="2038.15" y1="600.171" x2="-171.874" y2="600.17" gradientUnits="userSpaceOnUse">
<stop offset="0.00064132" stop-color="#2F046B"/>
<stop offset="0.9969" stop-color="#11DCCA"/>
</linearGradient>
<linearGradient id="paint9_linear_670_5186" x1="2040.83" y1="604.725" x2="-164.43" y2="604.725" gradientUnits="userSpaceOnUse">
<stop offset="0.00064132" stop-color="#2F046B"/>
<stop offset="0.9969" stop-color="#11DCCA"/>
</linearGradient>
<linearGradient id="paint10_linear_670_5186" x1="2043.52" y1="609.328" x2="-156.986" y2="609.328" gradientUnits="userSpaceOnUse">
<stop offset="0.00064132" stop-color="#2F046B"/>
<stop offset="0.9969" stop-color="#11DCCA"/>
</linearGradient>
<linearGradient id="paint11_linear_670_5186" x1="2046.2" y1="615.459" x2="-149.541" y2="615.459" gradientUnits="userSpaceOnUse">
<stop offset="0.00064132" stop-color="#2F046B"/>
<stop offset="0.9969" stop-color="#11DCCA"/>
</linearGradient>
<linearGradient id="paint12_linear_670_5186" x1="2048.88" y1="634.194" x2="-142.097" y2="634.193" gradientUnits="userSpaceOnUse">
<stop offset="0.00064132" stop-color="#2F046B"/>
<stop offset="0.9969" stop-color="#11DCCA"/>
</linearGradient>
<linearGradient id="paint13_linear_670_5186" x1="2051.56" y1="652.921" x2="-134.653" y2="652.921" gradientUnits="userSpaceOnUse">
<stop offset="0.00064132" stop-color="#2F046B"/>
<stop offset="0.9969" stop-color="#11DCCA"/>
</linearGradient>
<linearGradient id="paint14_linear_670_5186" x1="2054.24" y1="671.642" x2="-127.208" y2="671.642" gradientUnits="userSpaceOnUse">
<stop offset="0.00064132" stop-color="#2F046B"/>
<stop offset="0.9969" stop-color="#11DCCA"/>
</linearGradient>
<linearGradient id="paint15_linear_670_5186" x1="2056.92" y1="690.351" x2="-119.764" y2="690.351" gradientUnits="userSpaceOnUse">
<stop offset="0.00064132" stop-color="#2F046B"/>
<stop offset="0.9969" stop-color="#11DCCA"/>
</linearGradient>
<linearGradient id="paint16_linear_670_5186" x1="2059.6" y1="709.048" x2="-112.32" y2="709.048" gradientUnits="userSpaceOnUse">
<stop offset="0.00064132" stop-color="#2F046B"/>
<stop offset="0.9969" stop-color="#11DCCA"/>
</linearGradient>
<linearGradient id="paint17_linear_670_5186" x1="2062.27" y1="727.727" x2="-104.875" y2="727.727" gradientUnits="userSpaceOnUse">
<stop offset="0.00064132" stop-color="#2F046B"/>
<stop offset="0.9969" stop-color="#11DCCA"/>
</linearGradient>
<linearGradient id="paint18_linear_670_5186" x1="2064.95" y1="746.383" x2="-97.4308" y2="746.383" gradientUnits="userSpaceOnUse">
<stop offset="0.00064132" stop-color="#2F046B"/>
<stop offset="0.9969" stop-color="#11DCCA"/>
</linearGradient>
<linearGradient id="paint19_linear_670_5186" x1="2067.62" y1="765.01" x2="-89.9866" y2="765.01" gradientUnits="userSpaceOnUse">
<stop offset="0.00064132" stop-color="#2F046B"/>
<stop offset="0.9969" stop-color="#11DCCA"/>
</linearGradient>
<linearGradient id="paint20_linear_670_5186" x1="2070.3" y1="783.596" x2="-82.5424" y2="783.596" gradientUnits="userSpaceOnUse">
<stop offset="0.00064132" stop-color="#2F046B"/>
<stop offset="0.9969" stop-color="#11DCCA"/>
</linearGradient>
<linearGradient id="paint21_linear_670_5186" x1="2072.97" y1="802.127" x2="-75.0978" y2="802.127" gradientUnits="userSpaceOnUse">
<stop offset="0.00064132" stop-color="#2F046B"/>
<stop offset="0.9969" stop-color="#11DCCA"/>
</linearGradient>
<linearGradient id="paint22_linear_670_5186" x1="2075.64" y1="820.58" x2="-67.6536" y2="820.58" gradientUnits="userSpaceOnUse">
<stop offset="0.00064132" stop-color="#2F046B"/>
<stop offset="0.9969" stop-color="#11DCCA"/>
</linearGradient>
<linearGradient id="paint23_linear_670_5186" x1="2078.3" y1="838.892" x2="-60.2093" y2="838.892" gradientUnits="userSpaceOnUse">
<stop offset="0.00064132" stop-color="#2F046B"/>
<stop offset="0.9969" stop-color="#11DCCA"/>
</linearGradient>
<linearGradient id="paint24_linear_670_5186" x1="2080.96" y1="856.998" x2="-52.7649" y2="856.998" gradientUnits="userSpaceOnUse">
<stop offset="0.00064132" stop-color="#2F046B"/>
<stop offset="0.9969" stop-color="#11DCCA"/>
</linearGradient>
<linearGradient id="paint25_linear_670_5186" x1="2083.62" y1="874.796" x2="-45.3204" y2="874.796" gradientUnits="userSpaceOnUse">
<stop offset="0.00064132" stop-color="#2F046B"/>
<stop offset="0.9969" stop-color="#11DCCA"/>
</linearGradient>
<linearGradient id="paint26_linear_670_5186" x1="2086.27" y1="892.092" x2="-37.8764" y2="892.092" gradientUnits="userSpaceOnUse">
<stop offset="0.00064132" stop-color="#2F046B"/>
<stop offset="0.9969" stop-color="#11DCCA"/>
</linearGradient>
<linearGradient id="paint27_linear_670_5186" x1="2088.91" y1="906.057" x2="-30.4318" y2="906.057" gradientUnits="userSpaceOnUse">
<stop offset="0.00064132" stop-color="#2F046B"/>
<stop offset="0.9969" stop-color="#11DCCA"/>
</linearGradient>
<linearGradient id="paint28_linear_670_5186" x1="2091.55" y1="917.013" x2="-22.9878" y2="917.013" gradientUnits="userSpaceOnUse">
<stop offset="0.00064132" stop-color="#2F046B"/>
<stop offset="0.9969" stop-color="#11DCCA"/>
</linearGradient>
<linearGradient id="paint29_linear_670_5186" x1="2094.17" y1="927.605" x2="-15.5433" y2="927.604" gradientUnits="userSpaceOnUse">
<stop offset="0.00064132" stop-color="#2F046B"/>
<stop offset="0.9969" stop-color="#11DCCA"/>
</linearGradient>
<linearGradient id="paint30_linear_670_5186" x1="2096.78" y1="937.551" x2="-8.09918" y2="937.551" gradientUnits="userSpaceOnUse">
<stop offset="0.00064132" stop-color="#2F046B"/>
<stop offset="0.9969" stop-color="#11DCCA"/>
</linearGradient>
<linearGradient id="paint31_linear_670_5186" x1="2099.38" y1="946.638" x2="-0.654763" y2="946.638" gradientUnits="userSpaceOnUse">
<stop offset="0.00064132" stop-color="#2F046B"/>
<stop offset="0.9969" stop-color="#11DCCA"/>
</linearGradient>
</defs>
</svg>
