<svg width="169" height="217" viewBox="0 0 169 217" fill="none" xmlns="http://www.w3.org/2000/svg">
<g opacity="0.5">
<path d="M72.3501 108.84C72.3501 88.7497 88.6301 72.4697 108.72 72.4697C128.81 72.4697 145.09 88.7597 145.09 108.84C145.09 128.93 128.8 145.22 108.72 145.22C88.6401 145.22 72.3501 128.93 72.3501 108.84Z" stroke="#638DFF" strokeWidth="1.5" stroke-miterlimit="10"/>
<path d="M154.05 108.84C154.05 133.87 133.76 154.17 108.72 154.17C83.6798 154.17 63.3999 133.88 63.3999 108.84C63.3999 83.81 83.6898 63.52 108.72 63.52C133.75 63.52 154.05 83.81 154.05 108.84Z" stroke="#638DFF" strokeWidth="1.3454" stroke-miterlimit="10"/>
<path d="M163 108.84C163 138.82 138.7 163.12 108.72 163.12C78.7399 163.12 54.4399 138.82 54.4399 108.84C54.4399 78.8601 78.7399 54.5601 108.72 54.5601C138.7 54.5601 163 78.8701 163 108.84Z" stroke="#638DFF" strokeWidth="1.1907" stroke-miterlimit="10"/>
<path d="M171.95 108.84C171.95 143.76 143.64 172.07 108.72 172.07C73.8 172.07 45.49 143.76 45.49 108.84C45.49 73.9199 73.8 45.6099 108.72 45.6099C143.64 45.6099 171.95 73.9299 171.95 108.84Z" stroke="#638DFF" strokeWidth="1.0361" stroke-miterlimit="10"/>
<path d="M180.9 108.84C180.9 148.7 148.58 181.02 108.72 181.02C68.86 181.02 36.54 148.7 36.54 108.84C36.54 68.9797 68.86 36.6597 108.72 36.6597C148.58 36.6597 180.9 68.9797 180.9 108.84Z" stroke="#638DFF" strokeWidth="0.8814" stroke-miterlimit="10"/>
<path d="M189.85 108.84C189.85 153.65 153.53 189.97 108.72 189.97C63.91 189.97 27.5901 153.65 27.5901 108.84C27.5901 64.0299 63.91 27.71 108.72 27.71C153.53 27.71 189.85 64.04 189.85 108.84Z" stroke="#638DFF" strokeWidth="0.7268" stroke-miterlimit="10"/>
<path d="M198.8 108.84C198.8 158.59 158.47 198.92 108.72 198.92C58.9701 198.92 18.6401 158.59 18.6401 108.84C18.6401 59.0898 58.9701 18.7598 108.72 18.7598C158.47 18.7598 198.8 59.0898 198.8 108.84Z" stroke="#638DFF" strokeWidth="0.5721" stroke-miterlimit="10"/>
<path d="M207.75 108.84C207.75 163.53 163.41 207.87 108.72 207.87C54.0299 207.87 9.68994 163.53 9.68994 108.84C9.68994 54.1501 54.0299 9.81006 108.72 9.81006C163.41 9.81006 207.75 54.1501 207.75 108.84Z" stroke="#638DFF" strokeWidth="0.4175" stroke-miterlimit="10"/>
<path d="M0.73999 108.84C0.73999 49.1999 49.09 0.859863 108.72 0.859863C168.35 0.859863 216.7 49.2099 216.7 108.84C216.7 168.48 168.36 216.82 108.72 216.82C49.08 216.82 0.73999 168.48 0.73999 108.84Z" stroke="#638DFF" strokeWidth="0.2628" stroke-miterlimit="10"/>
</g>
</svg>
